<svg width="80" height="73" viewBox="0 0 80 73" fill="none" xmlns="http://www.w3.org/2000/svg">
<path d="M27.6411 63.1037C23.844 61.5694 19.9764 59.7685 16.8021 57.139C13.3602 54.2837 10.9564 50.5428 9.27542 46.4333C7.18018 41.3237 5.66687 35.9818 5.87925 30.4104C6.06687 25.559 7.30305 20.8085 9.35828 16.4171C11.0202 12.8619 13.1649 9.31522 15.7545 6.23427C15.6383 5.76951 15.623 5.31999 15.704 4.89333C15.7954 4.37999 16.0002 3.88761 16.3049 3.44476C16.8983 2.53904 17.8545 1.81333 18.8354 1.26857C19.8211 0.730474 20.8459 0.392379 21.6116 0.207617C21.9925 0.115237 22.3135 0.0590458 22.5345 0.0295222L22.6294 0.017931C22.6952 0.00980806 22.7479 0.00330138 22.7868 7.07132e-10L22.8687 0L22.8373 0.0742848L22.724 0.300952C22.6249 0.498095 22.4792 0.779046 22.2973 1.11524C21.9354 1.78857 21.4354 2.67999 20.8507 3.54285C20.5592 3.9819 20.2307 4.39523 19.8897 4.79142C19.7173 4.98666 19.5364 5.17047 19.3468 5.34189C19.1611 5.51523 18.9668 5.67713 18.764 5.81999C18.3497 6.09904 17.9173 6.32761 17.4307 6.45237C17.0726 6.54189 16.6983 6.57904 16.2964 6.55999C15.184 7.90094 14.163 9.32284 13.2221 10.7495C9.54876 16.3124 6.91259 22.7343 6.52021 29.4438C6.18402 35.199 7.55638 40.6818 9.724 45.978C10.8678 48.7723 12.2916 51.5028 14.2649 53.8075C16.2411 56.1132 18.6316 57.939 21.2697 59.4266C26.3183 62.278 33.6011 65.4237 40.5716 67.7542C43.8249 66.6866 47.0344 65.4866 49.7392 64.3151C53.3458 62.7542 56.9773 61.1494 60.2887 59.0085C63.9868 56.618 66.8801 53.4075 68.8677 49.4713C71.4211 44.4133 73.3201 38.6361 73.4544 32.9419C73.5782 27.7209 72.4306 22.5352 70.281 17.78C68.5953 14.0476 66.3782 10.3266 63.6696 7.1238C63.2515 7.14951 62.8639 7.10856 62.4953 7.01808C62.0077 6.89332 61.5753 6.66475 61.1601 6.3838C60.9572 6.24189 60.763 6.07999 60.5792 5.90571C60.3868 5.73618 60.2068 5.55237 60.0344 5.35713C59.6954 4.96285 59.3649 4.54761 59.0754 4.10856C58.4868 3.24571 57.9896 2.35618 57.6268 1.68285C57.4449 1.34476 57.2992 1.06381 57.1992 0.868569C57.1747 0.819636 57.1535 0.776282 57.1351 0.738622L57.1339 0.736189C57.1156 0.698801 57.1 0.666828 57.0868 0.640949L57.0535 0.564759L57.1363 0.566665C57.1702 0.568999 57.2165 0.574195 57.2728 0.580497L57.3906 0.593332C57.6106 0.626665 57.9287 0.678092 58.3125 0.77333C59.0782 0.95714 60.102 1.29619 61.0906 1.83523C62.0706 2.37904 63.0277 3.10571 63.6201 4.01047C63.9239 4.45237 64.1268 4.94761 64.2211 5.45904C64.302 5.89237 64.2858 6.35142 64.1639 6.82761C65.5734 8.53237 66.8458 10.3676 67.9839 12.2095C71.8668 18.4962 74.3706 25.8142 74.0372 33.2752C73.7953 38.6599 72.1515 44.0228 69.8239 48.8704C67.3087 54.1085 63.4868 58.0466 58.3906 60.8218C53.6963 63.3751 48.2716 66.0542 42.6325 68.4218C46.0563 69.4932 49.3401 70.3361 52.1725 70.8085C52.5478 70.8713 51.3801 72.8713 51.0049 72.8094C48.0163 72.3094 44.3897 70.8789 40.7154 69.2104C37.3563 70.5666 33.943 71.7942 30.5821 72.8056C30.2192 72.9161 28.2706 70.9342 28.6478 70.8713C31.543 70.3856 35.1421 69.458 38.7944 68.3208C37.4945 67.7087 36.2019 67.0821 34.9432 66.472L34.9403 66.4706L34.9394 66.4702C32.2696 65.176 29.7524 63.9558 27.6411 63.1037Z" fill="#FFDA55"/>
<path d="M11.7102 11.1369C11.415 11.5426 11.0293 11.8883 10.5131 12.1493C9.54835 11.4236 9.10168 10.4055 9.03025 9.27118C9.00168 8.70928 9.06453 8.11975 9.18929 7.52452C9.31786 6.93499 9.52833 6.35595 9.75881 5.79309C9.99595 5.235 10.2883 4.71595 10.5645 4.23785C10.8321 3.77729 11.1206 3.38109 11.3701 3.03846L11.4045 2.99119C11.6607 2.63595 11.895 2.36262 12.0617 2.17309C12.2302 1.98548 12.3264 1.875 12.3264 1.875C12.3264 1.875 12.4188 2.43691 12.5064 3.27595C12.556 3.70167 12.6084 4.19881 12.6484 4.73214C12.6674 4.99881 12.6845 5.27214 12.694 5.55309C12.7102 5.83595 12.7245 6.12737 12.7303 6.41785C12.7417 7.57309 12.6912 8.76737 12.3788 9.76927C12.235 10.2797 12.0217 10.7445 11.7102 11.1369Z" fill="#FFDA55"/>
<path d="M7.25607 19.5236C7.41702 19.3141 7.54464 19.0922 7.64559 18.8617C7.74559 18.6294 7.81989 18.3875 7.86942 18.1341C7.91179 17.9214 7.93324 17.6983 7.95465 17.4754L7.96559 17.3627C8.00559 16.836 7.96654 16.2779 7.87892 15.7056C7.79225 15.1341 7.69322 14.5665 7.54846 13.9941C7.25513 12.8503 6.93892 11.7751 6.65607 10.9541C6.37416 10.1341 6.17703 9.60938 6.17703 9.60938C6.17703 9.60938 6.09893 9.73223 5.97512 9.9589C5.85702 10.1884 5.69417 10.5189 5.51131 10.9246C5.1275 11.7265 4.74369 12.8741 4.50083 14.0779C4.40274 14.6894 4.33893 15.3179 4.33703 15.9265C4.32941 16.2275 4.36274 16.537 4.40751 16.8303C4.45036 17.1265 4.51228 17.4132 4.59419 17.6865C4.76276 18.2351 4.98942 18.7246 5.35323 19.1446C5.71037 19.5627 6.16085 19.9017 6.71989 20.136C6.93418 19.9427 7.1094 19.7398 7.25607 19.5236Z" fill="#FFDA55"/>
<path d="M3.41384 21.2109C3.69479 21.6776 3.98526 22.1833 4.25479 22.7005C4.30827 22.8088 4.36284 22.9181 4.41776 23.0281C4.62482 23.4427 4.837 23.8677 5.01383 24.289C5.24145 24.8233 5.40144 25.3548 5.50525 25.8776C5.6243 26.4024 5.6624 26.9195 5.5805 27.4233C5.54526 27.6728 5.46335 27.9224 5.37859 28.17C5.29192 28.4166 5.17383 28.6605 5.01764 28.9043C3.8243 28.7347 2.90335 28.0519 2.33192 27.0662C2.03668 26.5795 1.80718 26.0157 1.62909 25.4186C1.46909 24.8233 1.39003 24.1947 1.3367 23.569C1.31098 23.2567 1.29097 22.9462 1.28906 22.6414C1.29763 22.3376 1.31384 22.0443 1.3367 21.7576C1.3767 21.1862 1.4405 20.6586 1.50812 20.2081C1.68812 19.3205 1.85861 18.75 1.85861 18.75C1.85861 18.75 2.18811 19.2224 2.6405 19.95L2.77761 20.1741C2.96691 20.4836 3.18062 20.8329 3.41384 21.2109Z" fill="#FFDA55"/>
<path d="M10.8534 35.2C10.3486 36.0743 9.58199 36.8371 8.43247 37.2333C8.04295 36.8333 7.79532 36.3743 7.65913 35.8867C7.59341 35.6448 7.55437 35.3933 7.54008 35.1409C7.53246 34.8876 7.56866 34.6295 7.61533 34.3724C7.71437 33.8552 7.89915 33.34 8.13819 32.8514C8.19724 32.7286 8.26105 32.6076 8.32676 32.4867C8.39819 32.3695 8.47532 32.2505 8.55437 32.1352C8.71341 31.9019 8.88105 31.681 9.05343 31.4667C9.39914 31.041 9.76485 30.6562 10.1201 30.321C10.2934 30.1543 10.4772 29.9991 10.6582 29.8562C10.8372 29.7171 11.0077 29.5886 11.1658 29.4733C11.802 29.0152 12.2477 28.7695 12.2477 28.7695C12.2477 28.7695 12.2563 29.2048 12.1848 29.8657C12.1653 29.9967 12.157 30.1366 12.1483 30.284L12.141 30.4029C12.1277 30.5962 12.1087 30.799 12.082 31.0152C12.0456 31.3522 11.9754 31.7127 11.9033 32.0834C11.8847 32.1786 11.866 32.275 11.8477 32.3714C11.7658 32.8457 11.6468 33.3324 11.4791 33.8105C11.3934 34.0505 11.2972 34.2867 11.1848 34.521C11.0877 34.7543 10.9801 34.979 10.8534 35.2Z" fill="#FFDA55"/>
<path d="M1.9493 36.0772C1.7712 35.8391 1.6169 35.581 1.47023 35.3114C1.17309 34.7733 0.921664 34.1933 0.707378 33.6057C0.594997 33.3134 0.521681 33.0143 0.451205 32.72C0.381682 32.4257 0.319763 32.1362 0.264525 31.8553C0.162621 31.2934 0.0702403 30.7667 0.0388118 30.3153C-0.0145215 29.4095 0.00262671 28.8086 0.00262671 28.8086C0.00262671 28.8086 0.443576 29.1838 1.06548 29.7734C1.21355 29.9182 1.37738 30.0752 1.55192 30.2424L1.55401 30.2444C2.09417 30.762 2.73658 31.3776 3.33119 32.0334C3.52643 32.2495 3.71975 32.4705 3.90451 32.6981C4.08451 32.9248 4.26832 33.1553 4.45118 33.3838C4.80928 33.8495 5.11595 34.3238 5.33881 34.8105C5.45309 35.0524 5.53689 35.3 5.61213 35.5476C5.69498 35.7952 5.7512 36.0457 5.77977 36.301C5.83786 36.8105 5.77879 37.3353 5.57118 37.8857C4.36737 38.001 3.36835 37.54 2.53692 36.7343C2.3312 36.5353 2.13406 36.3143 1.9493 36.0772Z" fill="#FFDA55"/>
<path d="M10.8 45.6081C10.3381 45.2843 10.0057 44.8795 9.78001 44.4234C9.66667 44.1967 9.57905 43.9586 9.51715 43.7072C9.45524 43.4595 9.41048 43.2053 9.41429 42.9376C9.40667 41.8729 9.71524 40.7519 10.1867 39.7567C10.6876 38.7538 11.3029 37.891 11.7952 37.2862C12.0419 36.9834 12.2524 36.7472 12.419 36.5815C12.5809 36.4177 12.6781 36.3281 12.6781 36.3281C12.6781 36.3281 12.7 36.4376 12.7324 36.631L12.7595 36.758C12.7986 36.9404 12.8488 37.174 12.8952 37.4481C13.0219 38.1272 13.0838 39.0643 13.1486 40.0576C13.1657 40.5576 13.1486 41.0767 13.0819 41.5957C13.07 41.6697 13.0591 41.7436 13.0482 41.8172C13.0398 41.8735 13.0315 41.9296 13.0229 41.9853C13.0086 42.1129 12.9895 42.2395 12.9648 42.3662C12.9181 42.6205 12.8562 42.8719 12.7743 43.1176C12.4553 44.0995 11.8533 45.0034 10.8 45.6081Z" fill="#FFDA55"/>
<path d="M4.13643 45.5201C3.91072 45.3286 3.68596 45.122 3.49644 44.8877C3.10406 44.4315 2.745 43.9182 2.42405 43.3972C1.75453 42.3648 1.35358 41.2325 1.065 40.3877C0.922148 39.9658 0.817401 39.6125 0.746925 39.361C0.685973 39.1096 0.664063 38.9648 0.664063 38.9648C0.664063 38.9648 1.15168 39.2248 1.92883 39.6401C2.68787 40.062 3.68119 40.641 4.62405 41.3182C5.59547 41.9858 6.5574 42.7372 7.18025 43.6039L7.26532 43.726C7.38969 43.9038 7.51412 44.0817 7.61642 44.2677C7.74594 44.4953 7.84978 44.7315 7.92787 44.9744C8.08026 45.4677 8.12406 45.9982 8.02597 46.5782C6.86406 46.9182 5.79739 46.6582 4.83453 46.041C4.59453 45.8877 4.3612 45.7115 4.13643 45.5201Z" fill="#FFDA55"/>
<path d="M14.9842 53.1201C13.8795 52.8658 13.1576 52.0391 12.8442 51.0353C12.7709 50.7801 12.71 50.522 12.6833 50.2534C12.6595 49.982 12.6471 49.7143 12.6642 49.4448C12.6871 49.1715 12.7261 48.9048 12.7776 48.6448C12.8347 48.362 12.9023 48.0867 12.9804 47.8153C13.2842 46.7324 13.7242 45.7563 14.089 45.0582C14.2728 44.7086 14.4328 44.4296 14.5642 44.2286C14.6909 44.0334 14.769 43.9258 14.769 43.9258C14.769 43.9258 14.8147 44.0334 14.8852 44.2267L14.9323 44.3387C15.0081 44.5183 15.1066 44.7518 15.2071 45.0267C15.3328 45.362 15.469 45.7629 15.5918 46.2077C15.7147 46.6372 15.8461 47.1915 15.8814 47.5191C15.9861 48.2915 16.1109 49.2124 16.0576 50.1829C15.9947 51.1543 15.7499 52.181 14.9842 53.1201Z" fill="#FFDA55"/>
<path d="M3.39844 48.5547C3.39844 48.5547 3.93083 48.7071 4.75844 48.968C5.57844 49.2299 6.65652 49.6099 7.70699 50.1042C7.96889 50.229 8.22793 50.3575 8.48603 50.5004C8.76412 50.6566 9.03366 50.8128 9.29271 50.9766C9.55557 51.1328 9.81557 51.289 10.0565 51.4547L10.1749 51.5357C10.3759 51.6731 10.5747 51.809 10.7546 51.9547C11.6365 52.6452 12.2908 53.4394 12.5632 54.6042C11.5927 55.3309 10.4575 55.4537 9.28318 55.0785C8.11366 54.7099 6.92128 53.8299 5.95462 52.6804C5.83747 52.5356 5.71937 52.389 5.60509 52.2394L5.43463 52.0166L5.30224 51.8337C5.13176 51.5975 4.96986 51.3633 4.81843 51.1309C4.51653 50.6699 4.25558 50.229 4.0432 49.8499C3.83082 49.4699 3.66319 49.148 3.55367 48.9214C3.44796 48.6928 3.39844 48.5547 3.39844 48.5547Z" fill="#FFDA55"/>
<path d="M21.7408 58.6429C20.5941 58.7 19.6684 58.1477 19.0084 57.3105C18.3475 56.4677 17.9551 55.3505 17.7951 54.2619C17.6341 53.1667 17.6884 52.1229 17.8132 51.3581C17.8741 50.9791 17.9389 50.6705 17.996 50.4524C18.0532 50.2381 18.0922 50.1172 18.0922 50.1172C18.0922 50.1172 18.1665 50.1886 18.2846 50.322C18.4103 50.4524 18.5884 50.6439 18.797 50.8858C19.2218 51.3658 19.8027 52.0315 20.3703 52.8134C20.9361 53.5962 21.496 54.4943 21.8132 55.4734C22.1275 56.4553 22.2075 57.5229 21.7408 58.6429Z" fill="#FFDA55"/>
<path d="M25.1664 59.1995C25.6187 60.2167 26.2768 61.21 27.1397 61.8576C27.5711 62.1776 28.0492 62.4214 28.5664 62.5195C29.0797 62.6224 29.633 62.5938 30.1683 62.3691C30.1978 61.151 29.8635 60.1891 29.3435 59.3443C28.8216 58.5072 28.0788 57.7834 27.3149 57.1586C26.5483 56.5376 25.7664 56.0186 25.174 55.6443C24.5826 55.2767 24.1797 55.0586 24.1797 55.0586C24.1797 55.0586 24.1845 55.1891 24.2054 55.4195C24.2273 55.6443 24.2654 55.97 24.3302 56.3624C24.4607 57.1405 24.7111 58.1853 25.1664 59.1995Z" fill="#FFDA55"/>
<path d="M27.2115 63.4945C27.7277 63.6792 28.2077 63.9621 28.7362 64.3583C28.3981 65.5221 27.3772 66.2592 26.1791 66.5973C24.9715 66.944 23.5877 66.9173 22.3191 66.6945C21.0439 66.4726 19.8734 66.064 19.0277 65.7011C18.182 65.3402 17.6562 65.0354 17.6562 65.0354C17.6562 65.0354 18.1934 64.8212 19.0163 64.5478C19.8448 64.265 20.9496 63.9173 22.1143 63.6307C23.2791 63.3497 24.4934 63.1392 25.6067 63.1916C26.1667 63.2145 26.6972 63.3126 27.2115 63.4945Z" fill="#FFDA55"/>
<path d="M19.7177 60.4303C18.9958 61.4027 17.9634 61.8513 16.7986 61.9065C15.6339 61.9627 14.3434 61.6236 13.1615 61.0865C11.9805 60.5522 10.9091 59.8255 10.1529 59.2008C9.80497 58.9149 9.52203 58.6523 9.31735 58.4623L9.26438 58.4132C9.05676 58.2103 8.94531 58.0884 8.94531 58.0884C8.94531 58.0884 9.5215 58.077 10.4396 58.0617C10.6342 58.0605 10.8427 58.0583 11.0622 58.056L11.072 58.0559L11.0737 58.0558H11.0765C11.8644 58.0475 12.7941 58.0377 13.7301 58.0636C14.9358 58.1027 16.1615 58.1903 17.211 58.5122C18.2625 58.836 19.1405 59.396 19.7177 60.4303Z" fill="#FFDA55"/>
<path d="M11.6933 26.1425C11.4352 26.5558 11.1305 26.9539 10.7686 27.3072C10.0276 28.012 9.15811 28.5663 7.94668 28.6815C7.79621 28.4434 7.68192 28.1996 7.60192 27.952C7.52288 27.7053 7.50383 27.4558 7.50002 27.2082C7.49812 26.7101 7.61337 26.213 7.81337 25.7387C8.02956 25.2682 8.35432 24.8234 8.71241 24.4149C8.89051 24.212 9.08191 24.0168 9.28001 23.8339C9.47704 23.6492 9.708 23.4805 9.92602 23.3213L9.92954 23.3187C10.8248 22.6825 11.7267 22.2273 12.4772 21.9568C13.2076 21.6815 13.7019 21.5625 13.7019 21.5625C13.7019 21.5625 13.5981 21.9777 13.361 22.5911C13.3349 22.6654 13.3085 22.7428 13.2812 22.8229C13.1948 23.0762 13.0992 23.3563 12.9762 23.6501C12.8972 23.8454 12.8076 24.0463 12.7086 24.2511C12.6627 24.3463 12.6206 24.4439 12.5783 24.542C12.5302 24.6537 12.4815 24.7667 12.4257 24.8796C12.2257 25.3053 11.9762 25.7292 11.6933 26.1425Z" fill="#FFDA55"/>
<path d="M16.7731 15.1771C16.876 15.0152 16.9303 14.9219 16.9303 14.9219C16.9303 14.9219 16.8007 14.9219 16.5731 14.9314C16.3417 14.939 16.0274 14.9628 15.6455 15.0114C15.2626 15.06 14.8141 15.1323 14.3293 15.2419C14.0903 15.2981 13.8331 15.359 13.5855 15.4362C13.3398 15.5162 13.0903 15.6009 12.8398 15.7038C12.3408 15.9047 11.8246 16.1447 11.3741 16.4457C10.9303 16.7485 10.5217 17.1009 10.1855 17.4952C10.0141 17.6904 9.88267 17.9057 9.76934 18.1276C9.65696 18.3504 9.56836 18.5828 9.50741 18.8209C9.4455 19.0609 9.41313 19.3085 9.41408 19.5619C9.42742 19.82 9.47694 20.0819 9.5617 20.3504C10.1579 20.4485 10.7093 20.4228 11.215 20.3095C11.716 20.1962 12.2074 20.0076 12.6398 19.7571C12.8579 19.6343 13.0646 19.4962 13.2607 19.3457C13.3598 19.2752 13.4541 19.1952 13.5484 19.1152C13.6446 19.039 13.7427 18.959 13.8369 18.879C14.215 18.5533 14.5503 18.1981 14.8484 17.8371C15.1693 17.4838 15.4569 17.1266 15.6979 16.7847L15.8741 16.5314L16.0503 16.2933C16.1617 16.1371 16.2655 15.9904 16.356 15.8524C16.5166 15.6123 16.6412 15.4009 16.7356 15.2407L16.7731 15.1771Z" fill="#FFDA55"/>
<path d="M19.9991 10.6826C19.682 10.9673 19.3115 11.254 18.9248 11.5368C18.5439 11.8235 18.122 12.093 17.6801 12.3273C17.2496 12.5692 16.7877 12.7702 16.2981 12.9073C15.3362 13.1864 14.2848 13.2292 13.1677 12.7416C13.142 12.1911 13.2544 11.6873 13.4772 11.2483C13.7144 10.8168 14.0553 10.4445 14.4562 10.1283C15.2858 9.51303 16.3705 9.14637 17.4505 8.98827C17.9801 8.90256 18.5172 8.86922 19.0134 8.86732C19.5096 8.86541 19.961 8.88446 20.3486 8.92161C21.1305 8.9997 21.6334 9.11113 21.6334 9.11113C21.6334 9.11113 21.561 9.19303 21.4277 9.33208C21.3655 9.39645 21.2889 9.47183 21.2016 9.55766C21.0993 9.65835 20.9816 9.77415 20.8553 9.90351C20.6191 10.1378 20.322 10.3997 19.9991 10.6826Z" fill="#FFDA55"/>
<path d="M57.59 67.2585C58.8662 67.0404 60.0357 66.6309 60.8814 66.269C61.7271 65.9061 62.2528 65.6023 62.2528 65.6023C62.2528 65.6023 61.7147 65.389 60.8909 65.1138C60.0624 64.8328 58.9585 64.4833 57.7938 64.1966C56.6271 63.9156 55.4166 63.7071 54.3024 63.7576C53.7405 63.7795 53.2109 63.8766 52.6967 64.0585C52.1805 64.2452 51.6995 64.5252 51.1719 64.9233C51.5119 66.0861 52.5319 66.8233 53.7309 67.1614C54.9357 67.509 56.3204 67.4814 57.59 67.2585Z" fill="#FFDA55"/>
<path d="M51.3296 63.0859C51.8448 62.9869 52.3239 62.745 52.7553 62.425C53.6172 61.7745 54.2753 60.7831 54.7276 59.7669C55.1819 58.7517 55.4324 57.7059 55.5648 56.9269C55.6286 56.5364 55.6658 56.2107 55.6896 55.986C55.7086 55.7574 55.7143 55.625 55.7143 55.625C55.7143 55.625 55.3096 55.8402 54.72 56.2107C54.1296 56.5831 53.3467 57.104 52.581 57.725C51.8153 58.3479 51.0734 59.0736 50.5486 59.9107C50.0286 60.7555 49.6972 61.7164 49.7286 62.9336C50.26 63.1621 50.8153 63.1878 51.3296 63.0859Z" fill="#FFDA55"/>
<path d="M66.1829 58.6315C64.9772 58.6706 63.7505 58.7563 62.702 59.0782C61.6505 59.4029 60.7715 59.9629 60.1953 60.9934C60.9153 61.9686 61.9477 62.4182 63.1144 62.4724C64.2791 62.5286 65.5677 62.1896 66.7486 61.6544C67.9315 61.1182 69.0029 60.3915 69.7582 59.7639C70.1054 59.4854 70.3875 59.222 70.5934 59.0296L70.6496 58.9772C70.8562 58.7744 70.9696 58.6534 70.9696 58.6534C70.9696 58.6534 70.3924 58.6429 69.4724 58.6277C69.2784 58.6265 69.0704 58.6243 68.8513 58.622C68.0605 58.6137 67.1244 58.6039 66.1829 58.6315Z" fill="#FFDA55"/>
<path d="M58.1423 59.2064C59.288 59.2683 60.2137 58.716 60.8737 57.875C61.5337 57.036 61.927 55.9179 62.0861 54.8284C62.2489 53.7341 62.1946 52.6874 62.068 51.9245C62.008 51.5436 61.9442 51.2379 61.8842 51.0188C61.828 50.8026 61.7899 50.6836 61.7899 50.6836C61.7899 50.6836 61.7175 50.7541 61.5975 50.8864C61.4709 51.0188 61.2928 51.2103 61.0851 51.4503C60.6594 51.9322 60.0804 52.5979 59.5118 53.3788C58.9461 54.1626 58.387 55.0588 58.0699 56.0388C57.7556 57.0217 57.6737 58.0893 58.1423 59.2064Z" fill="#FFDA55"/>
<path d="M73.9513 53.2468C74.0704 53.102 74.1885 52.9525 74.3028 52.8058L74.4704 52.5811L74.6037 52.4001C74.7752 52.1639 74.9361 51.9278 75.0875 51.6973C75.3885 51.2382 75.6494 50.7973 75.8637 50.4173C76.0761 50.0363 76.2418 49.7144 76.3514 49.4897C76.459 49.2601 76.5085 49.1211 76.5085 49.1211C76.5085 49.1211 75.9752 49.2773 75.1476 49.5335C74.3285 49.7963 73.2485 50.1773 72.1999 50.6706C71.9361 50.7954 71.678 50.923 71.419 51.0668C71.1428 51.223 70.8723 51.3811 70.6142 51.5411L70.5176 51.5998C70.288 51.7392 70.0627 51.8759 69.8514 52.023L69.7717 52.0768C69.5565 52.2221 69.3432 52.3662 69.1533 52.523C68.2695 53.2116 67.6142 54.0039 67.3438 55.1697C68.3142 55.8973 69.4514 56.022 70.6218 55.6439C71.7933 55.2763 72.9856 54.3963 73.9513 53.2468Z" fill="#FFDA55"/>
<path d="M66.9204 48.3798C66.6157 47.2989 66.1747 46.3217 65.809 45.6246C65.6242 45.2731 65.4652 44.996 65.3337 44.7969C65.208 44.6017 65.1299 44.4922 65.1299 44.4922C65.1299 44.4922 65.0861 44.5998 65.0147 44.7912L64.9957 44.836C64.916 45.0243 64.8071 45.2815 64.6909 45.5931C64.5661 45.9293 64.4299 46.3293 64.3061 46.7741C64.1861 47.2055 64.0518 47.756 64.0176 48.0836L64.0141 48.1093C63.911 48.8763 63.7886 49.7868 63.8404 50.7512C63.9042 51.7198 64.149 52.7484 64.9156 53.6865C66.0185 53.4293 66.7423 52.6055 67.0537 51.5988C67.1261 51.3465 67.1909 51.0874 67.2166 50.8198C67.2395 50.5484 67.2509 50.2808 67.2347 50.0093C67.2118 49.7369 67.1737 49.4693 67.1204 49.2093C67.0633 48.9303 66.9957 48.6512 66.9204 48.3798Z" fill="#FFDA55"/>
<path d="M79.1652 39.9293C79.228 39.6779 79.2509 39.5312 79.2509 39.5312C79.2509 39.5312 78.7633 39.7912 77.9861 40.2084C77.2271 40.6265 76.2338 41.2084 75.2919 41.8836C74.3176 42.5503 73.3576 43.3036 72.7328 44.1703L72.6796 44.2475L72.627 44.3233C72.5104 44.4909 72.3935 44.6589 72.2956 44.8341C72.169 45.0608 72.0623 45.297 71.9871 45.5427C71.8319 46.0341 71.7909 46.5636 71.889 47.1465C73.048 47.4808 74.1175 47.2227 75.0795 46.6065C75.3204 46.4541 75.5518 46.2779 75.7785 46.0874C76.0023 45.8941 76.228 45.6874 76.4185 45.4551C76.8109 44.9979 77.1699 44.4865 77.4899 43.9636C78.1594 42.9293 78.5614 41.7979 78.849 40.956C78.9918 40.5312 79.0985 40.1779 79.1652 39.9293Z" fill="#FFDA55"/>
<path d="M69.1106 46.1764C69.5725 45.8526 69.9048 45.445 70.1315 44.9898C70.2458 44.764 70.3306 44.5212 70.3934 44.2755C70.4553 44.026 70.5001 43.7717 70.4991 43.5031C70.5039 42.4374 70.1972 41.3174 69.7258 40.3221C69.2248 39.3202 68.6077 38.4564 68.1163 37.8545C67.8696 37.5507 67.661 37.3126 67.4934 37.1469C67.3296 36.9841 67.2353 36.8945 67.2353 36.8945C67.2353 36.8945 67.2096 37.0041 67.1792 37.1993L67.1641 37.2686C67.123 37.457 67.0676 37.7107 67.0153 38.0145C66.8896 38.6964 66.8277 39.6307 66.7648 40.626C66.7458 41.1221 66.7649 41.6431 66.8296 42.1621C66.842 42.2402 66.8537 42.3171 66.8653 42.393L66.8896 42.5507C66.9048 42.6793 66.9239 42.806 66.9467 42.9326C66.9934 43.1869 67.0563 43.4402 67.1363 43.684C67.4563 44.6659 68.0572 45.5698 69.1106 46.1764Z" fill="#FFDA55"/>
<path d="M76.5709 32.595C76.3747 32.8112 76.1833 33.034 75.9985 33.2607C75.8176 33.4883 75.6347 33.7169 75.4499 33.9474C75.0938 34.4102 74.7852 34.8864 74.5633 35.3721C74.4499 35.6159 74.3652 35.8636 74.2899 36.1112C74.2071 36.3598 74.1509 36.6093 74.1223 36.8645C74.0652 37.374 74.1233 37.8997 74.3299 38.4512C75.5347 38.5626 76.5347 38.1026 77.3642 37.2979C77.5709 37.1007 77.7671 36.8788 77.9528 36.6407C78.1309 36.4007 78.2823 36.1445 78.4338 35.8759C78.729 35.3388 78.9804 34.7569 79.1937 34.1693C79.308 33.8769 79.3814 33.5769 79.4519 33.2836C79.5204 32.9893 79.5833 32.6998 79.6366 32.4207C79.7404 31.8569 79.8309 31.3321 79.8642 30.8779C79.9166 29.9721 79.9004 29.375 79.9004 29.375C79.9004 29.375 79.4585 29.7455 78.8337 30.3388C78.675 30.4948 78.4974 30.665 78.3076 30.8469C77.778 31.3544 77.1518 31.9545 76.5709 32.595Z" fill="#FFDA55"/>
<path d="M72.2468 36.4531C72.3144 36.2112 72.3534 35.9616 72.3677 35.7093C72.3744 35.454 72.3391 35.1959 72.2915 34.935C72.1915 34.4197 72.0087 33.9083 71.7696 33.4169C71.7096 33.294 71.6468 33.1731 71.582 33.054C71.5121 32.9381 71.4357 32.8254 71.3602 32.714L71.3525 32.7026C71.1944 32.4683 71.0268 32.2474 70.8553 32.0312C70.5077 31.6074 70.1411 31.2226 69.7868 30.8874C69.6125 30.7197 69.4306 30.5655 69.2487 30.4245C69.0696 30.2826 68.8982 30.155 68.7392 30.0388C68.1039 29.5816 67.6563 29.3359 67.6563 29.3359C67.6563 29.3359 67.6515 29.7693 67.723 30.4321C67.743 30.5765 67.7521 30.7334 67.7617 30.9001L67.7658 30.9712C67.7801 31.1626 67.7991 31.3655 67.8249 31.5797C67.8585 31.8984 67.924 32.237 67.9916 32.587L67.9922 32.5901C68.0143 32.7046 68.0367 32.8203 68.0582 32.9369C68.1392 33.4112 68.2591 33.8969 68.4287 34.3769C68.5134 34.6169 68.6096 34.8531 68.7239 35.0874C68.8191 35.3178 68.9268 35.5474 69.0534 35.7664C69.5582 36.6407 70.323 37.4035 71.4725 37.7997C71.863 37.3978 72.1125 36.9388 72.2468 36.4531Z" fill="#FFDA55"/>
<path d="M74.3794 26.4459C74.2566 26.9707 74.2204 27.484 74.3004 27.9897C74.3376 28.2431 74.4185 28.4888 74.5033 28.7373C74.589 28.985 74.7071 29.2307 74.8642 29.4726C76.0566 29.3031 76.9804 28.6183 77.5509 27.6364C77.8433 27.145 78.0747 26.5821 78.2537 25.9869C78.4138 25.3897 78.4918 24.7621 78.5471 24.1393C78.5709 23.8269 78.5909 23.5126 78.5928 23.2097C78.5852 22.9078 78.568 22.6126 78.5471 22.3278C78.5033 21.7564 78.4414 21.2269 78.3747 20.7764C78.1937 19.8888 78.0252 19.3164 78.0252 19.3164C78.0252 19.3164 77.6937 19.7888 77.2404 20.5193C77.0204 20.8783 76.7585 21.305 76.468 21.7774C76.1871 22.2478 75.8956 22.7516 75.629 23.2707L75.5058 23.5156L75.5053 23.5166C75.2846 23.9546 75.0563 24.4077 74.868 24.8554C74.6414 25.3916 74.4814 25.9212 74.3794 26.4459Z" fill="#FFDA55"/>
<path d="M72.0986 26.3051C71.8824 25.8327 71.5595 25.3899 71.2004 24.9803C71.0214 24.7775 70.83 24.5822 70.63 24.3984C70.4363 24.2178 70.2104 24.0529 69.9949 23.8954L69.9833 23.887C69.0871 23.2489 68.1852 22.7908 67.4357 22.5232C66.7043 22.248 66.2109 22.1289 66.2109 22.1289C66.2109 22.1289 66.3128 22.5441 66.5519 23.1556L66.6046 23.3122L66.6051 23.3136C66.6965 23.5862 66.8 23.8949 66.9366 24.2175C67.0147 24.4118 67.1043 24.6127 67.2033 24.8165C67.2435 24.9021 67.2814 24.9899 67.3193 25.0776C67.3718 25.1992 67.4253 25.3229 67.4871 25.446C67.6862 25.868 67.9357 26.2975 68.2195 26.7089C68.4776 27.1232 68.7824 27.5194 69.1424 27.8746C69.8862 28.5784 70.7557 29.1346 71.9662 29.2479C72.1166 29.0098 72.2309 28.766 72.3109 28.5203C72.39 28.2708 72.4081 28.0241 72.4119 27.7727C72.4128 27.2756 72.2966 26.7794 72.0986 26.3051Z" fill="#FFDA55"/>
<path d="M73.7579 10.1758C73.7579 10.1758 73.5599 10.7005 73.278 11.5205C72.997 12.3424 72.6808 13.4158 72.3846 14.5596C72.2418 15.131 72.1417 15.7024 72.057 16.271C71.9675 16.8443 71.9284 17.4024 71.9694 17.9291L71.9821 18.0599C72.0027 18.2756 72.0235 18.4931 72.0646 18.7005C72.1151 18.9539 72.1875 19.1958 72.2894 19.4282C72.3884 19.6567 72.517 19.8796 72.6779 20.092C72.8256 20.3043 73.0008 20.511 73.2132 20.7043C73.7722 20.4681 74.2236 20.131 74.5817 19.7129C74.9465 19.2901 75.1713 18.8015 75.3408 18.252C75.4227 17.9786 75.4837 17.6929 75.5284 17.3967C75.5722 17.1005 75.6037 16.7939 75.597 16.4929C75.5951 15.8843 75.5322 15.2558 75.4332 14.6434C75.1913 13.4386 74.8046 12.291 74.4237 11.491C74.2418 11.0872 74.077 10.7539 73.9608 10.5234C73.8351 10.3005 73.7579 10.1758 73.7579 10.1758Z" fill="#FFDA55"/>
<path d="M70.1697 18.6951C70.0554 18.4722 69.9249 18.256 69.7516 18.0627C69.4145 17.6665 69.0078 17.317 68.564 17.0122C68.1145 16.7103 67.5983 16.4703 67.1002 16.2703C66.8478 16.1694 66.5974 16.0798 66.3516 16.0036C66.1059 15.9236 65.8478 15.8627 65.6088 15.8084C65.1221 15.697 64.6764 15.6265 64.2935 15.5779C63.9107 15.5294 63.5974 15.5055 63.3669 15.4979C63.1374 15.4865 63.0078 15.4884 63.0078 15.4884C63.0078 15.4884 63.0621 15.5817 63.165 15.7455L63.2356 15.8637C63.3257 16.015 63.4392 16.2056 63.5811 16.4189C63.6735 16.5579 63.7745 16.7036 63.8888 16.8617L64.065 17.0979C64.1212 17.1798 64.1792 17.2636 64.2402 17.3503C64.4821 17.6932 64.7678 18.0522 65.0897 18.4055C65.3869 18.7646 65.724 19.1198 66.1012 19.4436C66.161 19.4963 66.2235 19.5468 66.2856 19.597L66.3299 19.633C66.3506 19.6498 66.3712 19.6666 66.3916 19.6836C66.484 19.7617 66.5792 19.8379 66.6773 19.9141C66.8726 20.0627 67.0802 20.2008 67.2973 20.3227C67.7297 20.5722 68.2211 20.7636 68.7249 20.877C69.2297 20.9874 69.7811 21.017 70.3773 20.9151C70.4611 20.6503 70.5116 20.3865 70.524 20.1274C70.524 19.877 70.4926 19.6274 70.4316 19.3893C70.3707 19.1493 70.2811 18.917 70.1697 18.6951Z" fill="#FFDA55"/>
<path d="M69.4061 12.7128C70.3709 11.9881 70.8185 10.9719 70.8899 9.83568C70.9156 9.27377 70.8547 8.68235 70.7318 8.08902C70.6004 7.49949 70.3918 6.92235 70.1594 6.35664C69.9232 5.79759 69.6308 5.28235 69.3537 4.80045C69.1061 4.37311 68.8366 4.00163 68.6004 3.67593L68.5147 3.55759C68.2594 3.20045 68.0242 2.92712 67.8566 2.73569C67.6899 2.54712 67.5947 2.44141 67.5947 2.44141C67.5947 2.44141 67.5004 3.00141 67.4128 3.84045C67.3623 4.26616 67.3108 4.76331 67.2728 5.29664C67.2518 5.5614 67.2356 5.83664 67.2232 6.11664L67.2161 6.26491C67.2046 6.50093 67.1929 6.74249 67.189 6.98235C67.1775 8.13759 67.228 9.33092 67.5385 10.3338C67.6832 10.8433 67.8975 11.3052 68.2099 11.7014C68.5032 12.109 68.889 12.4509 69.4061 12.7128Z" fill="#FFDA55"/>
<path d="M65.4174 10.6947C64.5898 10.0794 63.5041 9.71276 62.425 9.55467C61.8946 9.46705 61.3584 9.43753 60.8603 9.43372C60.3651 9.43181 59.9146 9.45181 59.5269 9.488C58.7441 9.56705 58.2422 9.67562 58.2422 9.67562C58.2422 9.67562 58.3127 9.75753 58.4489 9.89848C58.5228 9.97721 58.6179 10.0706 58.7281 10.1788C58.8164 10.2655 58.9148 10.3622 59.0193 10.468C59.2327 10.6831 59.4975 10.9161 59.7833 11.1677L59.8755 11.249C60.1927 11.5337 60.5622 11.8223 60.9508 12.1032C61.3298 12.389 61.7527 12.6594 62.1946 12.8937C62.626 13.1356 63.0879 13.3375 63.5765 13.4737C64.5374 13.7547 65.5908 13.7975 66.7079 13.308C66.7336 12.7575 66.6212 12.2556 66.3974 11.8128C66.1622 11.3851 65.8203 11.009 65.4174 10.6947Z" fill="#FFDA55"/>
<path fill-rule="evenodd" clip-rule="evenodd" d="M39.8429 18.4648L28.1173 21.0378C27.8004 21.1074 27.5171 21.2816 27.3139 21.5316C27.1108 21.7816 27.0001 22.0926 27 22.4131V36.4871C27.0003 37.8787 27.3485 39.2487 28.0137 40.4755C28.6788 41.7023 29.6403 42.748 30.8129 43.5199L39.8429 49.4648L48.8728 43.5199C50.0456 42.7479 51.0073 41.7019 51.6724 40.4749C52.3375 39.2478 52.6856 37.8775 52.6857 36.4857V22.4131C52.6857 22.0926 52.5749 21.7816 52.3718 21.5316C52.1687 21.2816 51.8853 21.1074 51.5684 21.0378L39.8429 18.4648ZM41.2698 24.1012V31.1467H45.5508L38.4159 41.0103V33.9648H34.1349L41.2698 24.1012Z" fill="#FFDA55"/>
</svg>
