<svg width="120" height="121" viewBox="0 0 120 121" fill="none" xmlns="http://www.w3.org/2000/svg">
<g clip-path="url(#clip0_1633_220)">
<path d="M25.0499 0.164062C32.3249 0.164062 38.9999 3.27654 43.6499 8.414C26.7374 13.364 13.05 25.7764 6.33748 41.8262C2.36249 37.3263 0 31.4388 0 25.2139C0 11.414 11.25 0.164063 25.0499 0.164062Z" fill="#4F01D9"/>
<path d="M95.3251 0.202972C88.0126 0.202972 81.3376 3.35295 76.8001 8.56541C93.3751 13.5529 106.838 25.7403 113.513 41.4902C117.6 37.0277 120 31.1402 120 24.8778C120 11.3029 108.938 0.202972 95.3251 0.202972Z" fill="#4F01D9"/>
<path fill-rule="evenodd" clip-rule="evenodd" d="M59.9997 11.6774C31.0498 11.6774 7.49986 35.2272 7.49986 64.177C7.49986 78.4681 13.2523 91.4243 22.5448 100.9L12.8848 110.56C10.6874 112.754 10.6874 116.32 12.8848 118.514C13.9873 119.613 15.4273 120.164 16.8673 120.164C18.3073 120.164 19.7473 119.617 20.8461 118.518L31.286 108.078C39.5473 113.5 49.406 116.68 60.0034 116.68C70.5972 116.68 80.4521 113.5 88.7096 108.085L99.1421 118.518C100.237 119.613 101.677 120.164 103.117 120.164C104.557 120.164 105.997 119.617 107.092 118.518C109.29 116.32 109.29 112.758 107.092 110.564L97.4433 100.915C106.743 91.4355 112.5 78.4719 112.5 64.177C112.5 35.2272 88.9496 11.6774 59.9997 11.6774ZM80.7746 81.0519C79.6871 82.1769 78.2246 82.7019 76.7996 82.7019C75.3371 82.7019 73.9122 82.1769 72.8247 81.0519L56.0247 64.252C54.9747 63.202 54.3747 61.777 54.3747 60.277V43.3272C54.3747 40.2147 56.8872 37.7022 59.9997 37.7022C63.1122 37.7022 65.6247 40.2147 65.6247 43.3272V57.9521L80.7746 73.1019C82.9496 75.3144 82.9496 78.8769 80.7746 81.0519Z" fill="#4F01D9"/>
</g>
<defs>
<clipPath id="clip0_1633_220">
<rect width="120" height="120" fill="white" transform="translate(0 0.164062)"/>
</clipPath>
</defs>
</svg>
