<svg width="52" height="52" viewBox="0 0 52 52" fill="none" xmlns="http://www.w3.org/2000/svg">
<circle cx="26" cy="26" r="25" stroke="white" stroke-width="2"/>
<path d="M32.497 37.9569C31.1401 39.3289 29.6586 39.1123 28.2325 38.4623C26.7233 37.798 25.3388 37.7691 23.7465 38.4623C21.7527 39.3578 20.7004 39.0978 19.5097 37.9569C12.7529 30.6922 13.7498 19.6292 21.4204 19.2248C23.2896 19.3259 24.5911 20.2935 25.6849 20.3802C27.3187 20.0336 28.8833 19.037 30.6278 19.167C32.7186 19.3403 34.297 20.2069 35.3354 21.7667C31.0155 24.4674 32.0401 30.4034 36 32.0643C35.2108 34.2307 34.1862 36.3826 32.4832 37.9713L32.497 37.9569ZM25.5464 19.1381C25.3388 15.9174 27.8448 13.26 30.7248 13C31.1263 16.7262 27.4848 19.4992 25.5464 19.1381Z" fill="white"/>
</svg>
