<svg width="120" height="120" viewBox="0 0 120 120" fill="none" xmlns="http://www.w3.org/2000/svg">
<path d="M30.4036 12.4348H12.4999C5.61522 12.4348 0 18.0654 0 24.969V33H120V24.969C120 18.0654 114.385 12.4348 107.5 12.4348H89.5964V2.56018C89.5964 1.15003 88.4495 0 87.0432 0H81.2883C79.882 0 78.7352 1.15003 78.7352 2.56018V12.4348H41.2649V2.56018C41.2649 1.15003 40.118 0 38.7117 0H32.9568C31.5505 0 30.4036 1.15003 30.4036 2.56018V12.4348Z" fill="#4F01D9"/>
<path fill-rule="evenodd" clip-rule="evenodd" d="M120 107.494V39H0V107.494C0 114.382 5.61523 120 12.4999 120H107.5C114.385 120 120 114.382 120 107.494ZM19.9856 69.4605V53.9475H35.4911V69.4605H19.9856ZM19.9856 101.987V86.4742H35.4911V101.987H19.9856ZM84.5089 101.987V86.4742H100.015V101.987H84.5089ZM52.2472 101.987V86.4742H67.7528V101.987H52.2472ZM84.5089 69.4605V53.9475H100.015V69.4605H84.5089ZM52.2472 69.4605V53.9475H67.7528V69.4605H52.2472Z" fill="#4F01D9"/>
</svg>
