<svg width="52" height="52" viewBox="0 0 52 52" fill="none" xmlns="http://www.w3.org/2000/svg">
<circle cx="26" cy="26" r="25" stroke="white" stroke-width="2"/>
<path d="M16.9758 19.5177C16.9758 19.5177 14.9716 21.4757 14.8633 23.5442V23.9314C14.95 25.6018 16.185 26.5863 16.185 26.5863C18.1674 28.5664 22.9665 31.0553 24.0932 31.6195C24.0932 31.6195 24.1582 31.6527 24.2015 31.6084L24.2232 31.5642V31.5199C21.1465 24.6726 16.9758 19.5177 16.9758 19.5177ZM23.454 33.3009C23.4323 33.2124 23.3457 33.2124 23.3457 33.2124L15.3508 33.5C16.2175 35.0819 17.6799 36.2987 19.2074 35.9336C20.2474 35.6571 22.6307 33.9646 23.4107 33.3894C23.4757 33.3341 23.454 33.2898 23.454 33.2898V33.3009ZM23.5407 32.4381C20.0307 30.0155 13.2275 26.3097 13.2275 26.3097C13.065 26.8186 13.0108 27.3053 13 27.7478V27.8252C13 29.0088 13.4333 29.8385 13.4333 29.8385C14.3 31.708 15.9683 32.2721 15.9683 32.2721C16.7266 32.604 17.4849 32.615 17.4849 32.615C17.6149 32.6372 22.2515 32.615 23.4865 32.615C23.5407 32.615 23.5732 32.5597 23.5732 32.5597V32.4934C23.5732 32.4602 23.5407 32.4381 23.5407 32.4381ZM22.8149 16.2544C22.0468 16.4547 21.3618 16.9012 20.8607 17.5284C20.3596 18.1556 20.0687 18.9304 20.0307 19.7389V20.1925C20.0632 20.8562 20.2041 21.354 20.2041 21.354C20.9191 24.5619 24.3857 29.8164 25.1332 30.9226C25.1873 30.9779 25.2415 30.9558 25.2415 30.9558C25.2623 30.9466 25.2798 30.931 25.2914 30.9111C25.3031 30.8913 25.3083 30.8682 25.3065 30.8451C26.4548 19.1195 24.104 16 24.104 16C23.7573 16.0221 22.8149 16.2544 22.8149 16.2544ZM31.8053 18.7655C31.8053 18.7655 31.2745 16.7743 29.162 16.2434C29.162 16.2434 28.5445 16.0885 27.8945 16C27.8945 16 25.5329 19.1084 26.6812 30.8562C26.692 30.9336 26.7462 30.9447 26.7462 30.9447C26.822 30.9779 26.8545 30.9115 26.8545 30.9115C27.6345 29.7721 31.0795 24.5398 31.7836 21.354C31.7836 21.354 32.1736 19.8053 31.8053 18.7655ZM28.642 33.2235C28.642 33.2235 28.5662 33.2234 28.5445 33.2788C28.5445 33.2788 28.5337 33.3562 28.577 33.3894C29.3353 33.9535 31.6645 35.6018 32.7803 35.9336C32.7803 35.9336 32.9536 35.9889 33.2461 36H33.3978C34.1453 35.9779 35.4561 35.5907 36.6477 33.5L28.6312 33.2235H28.642ZM37.1244 23.9204C37.2761 21.6416 35.0228 19.5288 35.0228 19.5177C35.0228 19.5177 30.852 24.6726 27.797 31.4646C27.797 31.4646 27.7645 31.5531 27.8187 31.6084L27.862 31.6195H27.927C29.0753 31.0332 33.8419 28.5553 35.8136 26.5973C35.8136 26.5973 37.0594 25.5686 37.1244 23.9204ZM38.771 26.2876C38.771 26.2876 31.9678 30.0155 28.4579 32.427C28.4579 32.427 28.4037 32.4712 28.4254 32.5487C28.4254 32.5487 28.4579 32.615 28.5012 32.615C29.7578 32.615 34.5244 32.615 34.6436 32.5929C34.6436 32.5929 35.2611 32.5708 36.0194 32.2721C36.0194 32.2721 37.7094 31.719 38.5869 29.7611C38.5869 29.7611 39.3777 28.1571 38.771 26.2876Z" fill="white"/>
</svg>
