<svg width="260" height="84" viewBox="0 0 260 84" fill="none" xmlns="http://www.w3.org/2000/svg">
<path d="M189.019 3.46187C184.864 1.81659 178.275 0 170.128 0C149.329 0 134.682 11.072 134.592 26.9016C134.419 38.5807 145.079 45.0675 153.051 48.9617C161.199 52.9409 163.969 55.5382 163.969 59.0851C163.886 64.5326 157.385 67.0436 151.321 67.0436C142.912 67.0436 138.407 65.749 131.56 62.7183L128.786 61.4191L125.839 79.6724C130.779 81.919 139.88 83.9126 149.329 84C171.428 84 185.816 73.0993 185.986 56.2303C186.07 46.9738 180.442 39.881 168.307 34.0852C160.94 30.3646 156.429 27.8559 156.429 24.0491C156.515 20.5884 160.245 17.0437 168.56 17.0437C175.407 16.8701 180.438 18.5131 184.249 20.1572L186.154 21.0207L189.019 3.46187Z" fill="white"/>
<path d="M112.665 82.7883H91.6032L104.777 1.47414H125.837L112.665 82.7883Z" fill="white"/>
<path fill-rule="evenodd" clip-rule="evenodd" d="M226.717 1.47414H243.008L260 82.7872H240.499C240.499 82.7872 238.59 73.4444 237.986 70.5896H210.944C210.162 72.7511 206.524 82.7872 206.524 82.7872H184.424L215.709 8.22081C217.876 2.9435 221.693 1.47414 226.717 1.47414ZM225.419 31.2306C225.419 31.2306 218.745 49.3102 217.01 53.9816H234.517C233.651 49.9161 229.662 30.4522 229.662 30.4522L228.19 23.4457C227.57 25.2498 226.674 27.7301 226.069 29.4032L226.068 29.4074C225.659 30.5393 225.384 31.3006 225.419 31.2306Z" fill="white"/>
<path d="M74.015 1.47414L53.3886 56.9226L51.1346 45.677C51.1318 45.6673 51.1289 45.6576 51.1261 45.6479L43.766 8.30934C42.5532 3.11596 38.8262 1.64545 34.2331 1.47414H0.346671L0 3.11711C8.26585 5.22718 15.6588 8.26791 22.1364 12.0487L40.9084 82.7021H63.1807L96.2862 1.47414H74.015Z" fill="white"/>
</svg>
