<svg width="242" height="96" viewBox="0 0 242 96" fill="none" xmlns="http://www.w3.org/2000/svg">
<path d="M55.2947 21.7937C51.1704 17.8634 45.6635 15.7123 39.9643 15.8053C29.5405 15.8053 20.6931 22.8251 17.5293 32.2845L17.5266 32.2824V32.284C15.854 37.2408 15.854 42.6087 17.5266 47.5655L17.5293 47.5661C20.6931 57.0255 29.5405 64.0452 39.9643 64.0452C45.3635 64.0452 49.9805 62.6598 53.5657 60.2323V60.2247C55.647 58.8454 57.4272 57.0594 58.7989 54.9744C60.1707 52.8893 61.1056 50.5484 61.5473 48.0926H39.9615V32.7169H77.6492C78.1105 35.3981 78.3408 38.1139 78.3374 40.8345C78.3374 52.9831 73.9914 63.2577 66.4483 70.2053H66.4437L66.4511 70.2111C59.8294 76.3104 50.7489 79.8479 39.9643 79.8479C32.5567 79.8476 25.295 77.7905 18.9899 73.9063C12.6847 70.0222 7.58434 64.4637 4.25813 57.8517V57.849L4.25539 57.8512C1.45726 52.2889 0 46.15 0 39.9248C0 33.6996 1.45726 27.5607 4.25539 21.9984H4.25837C7.58459 15.3866 12.6849 9.82832 18.9899 5.94423C25.295 2.06005 32.5567 0.00295656 39.9643 0.0026193C49.8864 -0.113151 59.4682 3.61271 66.7009 10.3991L55.2947 21.7937Z" fill="white"/>
<path fill-rule="evenodd" clip-rule="evenodd" d="M114.451 75.0406H105.515V5.54748H129.215C132.044 5.48845 134.857 5.98968 137.491 7.02226C140.125 8.05483 142.529 9.59831 144.562 11.5636C146.617 13.4096 148.252 15.6735 149.357 18.2031C150.463 20.7328 151.014 23.4696 150.973 26.2296C151.032 29.0044 150.49 31.7591 149.383 34.3049C148.276 36.8506 146.632 39.1273 144.562 40.9788C140.418 44.9267 135.302 46.8988 129.215 46.8951H114.451V75.0406ZM114.451 38.3617H129.437C131.08 38.4103 132.715 38.1159 134.238 37.4972C135.76 36.8785 137.137 35.9492 138.279 34.7686C139.416 33.6649 140.319 32.3447 140.936 30.8861C141.553 29.4275 141.871 27.8602 141.871 26.2768C141.871 24.6933 141.553 23.126 140.936 21.6674C140.319 20.2089 139.416 18.8886 138.279 17.7849C137.151 16.5795 135.779 15.6274 134.255 14.9917C132.731 14.356 131.088 14.0512 129.437 14.0976H114.451V38.3617Z" fill="white"/>
<path fill-rule="evenodd" clip-rule="evenodd" d="M171.567 25.9412C178.172 25.9412 183.386 27.7044 187.209 31.2309C191.031 34.7574 192.94 39.5925 192.937 45.7361V75.0405H184.389V68.4421H184C180.3 73.8761 175.379 76.593 169.236 76.593C163.993 76.593 159.606 75.0405 156.076 71.9354C154.382 70.5102 153.027 68.7254 152.111 66.711C151.195 64.6966 150.741 62.5034 150.781 60.2913C150.781 55.3712 152.642 51.4584 156.365 48.5529C160.087 45.6474 165.057 44.191 171.273 44.1836C176.579 44.1836 180.95 45.1539 184.383 47.0946V45.0541C184.394 43.546 184.068 42.0546 183.429 40.688C182.791 39.3213 181.856 38.1137 180.692 37.1528C178.329 35.0229 175.249 33.8608 172.067 33.898C167.075 33.898 163.125 36.0013 160.217 40.208L152.346 35.2565C156.675 29.0463 163.083 25.9412 171.567 25.9412ZM160.006 60.4853C160 61.6215 160.266 62.7426 160.781 63.7553C161.297 64.768 162.047 65.643 162.97 66.3074C164.946 67.8605 167.399 68.6832 169.913 68.6362C173.684 68.6299 177.299 67.1305 179.965 64.4665C182.925 61.683 184.406 58.4171 184.406 54.6688C181.619 52.4509 177.734 51.3419 172.75 51.3419C169.12 51.3419 166.093 52.2162 163.669 53.9646C161.221 55.739 160.006 57.8959 160.006 60.4853Z" fill="white"/>
<path d="M212.161 96L242 27.4939H232.27L218.477 61.6499H218.283L204.101 27.4939H194.388L214.009 72.0298L202.936 96H212.161Z" fill="white"/>
</svg>
