<svg width="260" height="81" viewBox="0 0 260 81" fill="none" xmlns="http://www.w3.org/2000/svg">
<path fill-rule="evenodd" clip-rule="evenodd" d="M71.6078 68.3108C63.5986 75.9169 52.9316 80.0951 41.8823 79.9538C30.7781 80.1213 20.0489 75.9426 11.9879 68.3108C8.19513 64.6362 5.17965 60.238 3.12038 55.3771C1.06111 50.5162 0 45.2916 0 40.0132C0 34.7348 1.06111 29.5102 3.12038 24.6493C5.17965 19.7884 8.19513 15.3902 11.9879 11.7156C20.0387 4.03858 30.7882 -0.16758 41.9161 0.00511511C52.9653 -0.136125 63.6324 4.04201 71.6416 11.6481C75.4386 15.3203 78.4578 19.7177 80.5198 24.5789C82.5817 29.4402 83.6443 34.666 83.6443 39.9457C83.6443 45.2254 82.5817 50.4513 80.5198 55.3125C78.4578 60.1738 75.4386 64.5712 71.6416 68.2433M41.9161 13.0318C38.3892 12.9977 34.8919 13.6779 31.6353 15.0313C28.3787 16.3847 25.4303 18.3832 22.9681 20.9063C20.5058 23.4293 18.5807 26.4246 17.309 29.7114C16.0372 32.9982 15.4451 36.5084 15.5685 40.0301C15.5685 43.4781 16.2483 46.8923 17.569 50.0778C18.8896 53.2633 20.8254 56.1577 23.2657 58.5958C25.7061 61.0339 28.6032 62.9678 31.7916 64.2873C34.98 65.6068 38.3974 66.2859 41.8485 66.2859C45.2997 66.2859 48.717 65.6068 51.9055 64.2873C55.0939 62.9678 57.991 61.0339 60.4313 58.5958C62.8716 56.1577 64.8074 53.2633 66.1281 50.0778C67.4488 46.8923 68.1285 43.4781 68.1285 40.0301C68.2514 36.5198 67.6634 33.021 66.4 29.7432C65.1365 26.4655 63.2235 23.4764 60.7757 20.9553C58.3279 18.4341 55.3958 16.4328 52.155 15.0712C48.9143 13.7097 45.4317 13.016 41.9161 13.0318M170.276 9.42077L138.152 81L136.328 80.6625C127.14 79.0089 125.283 76.714 120.993 67.3996L96.9082 14.9892H87.8555V2.26622H122.074V14.9892H113.899L133.254 58.3552L152.035 14.9892H141.902V2.26622H170.276V9.42077ZM247.968 68.3108C239.855 75.7961 229.218 79.9529 218.175 79.9529C207.132 79.9529 196.494 75.7961 188.382 68.3108C184.589 64.6362 181.573 60.238 179.514 55.3771C177.455 50.5162 176.394 45.2916 176.394 40.0132C176.394 34.7348 177.455 29.5102 179.514 24.6493C181.573 19.7884 184.589 15.3902 188.382 11.7156C196.494 4.23031 207.132 0.073512 218.175 0.073512C229.218 0.073512 239.855 4.23031 247.968 11.7156C251.773 15.3829 254.8 19.7787 256.867 24.6406C258.935 29.5025 260 34.7308 260 40.0132C260 45.2956 258.935 50.5239 256.867 55.3858C254.8 60.2477 251.773 64.6435 247.968 68.3108ZM218.411 13.0318C214.883 12.9979 211.384 13.678 208.126 15.031C204.867 16.384 201.917 18.3819 199.452 20.9045C196.987 23.4271 195.059 26.422 193.783 29.7089C192.507 32.9959 191.911 36.5067 192.03 40.0301C192.03 43.4781 192.709 46.8923 194.03 50.0778C195.351 53.2633 197.287 56.1577 199.727 58.5958C202.167 61.0339 205.064 62.9678 208.253 64.2873C211.441 65.6068 214.859 66.2859 218.31 66.2859C221.761 66.2859 225.178 65.6068 228.367 64.2873C231.555 62.9678 234.452 61.0339 236.893 58.5958C239.333 56.1577 241.269 53.2633 242.589 50.0778C243.91 46.8923 244.59 43.4781 244.59 40.0301C244.717 36.5215 244.134 33.0233 242.874 29.7458C241.614 26.4682 239.704 23.4788 237.259 20.9571C234.814 18.4354 231.884 16.4335 228.645 15.0716C225.406 13.7097 221.925 13.0158 218.411 13.0318" fill="white"/>
</svg>
