<svg width="234" height="96" viewBox="0 0 234 96" fill="none" xmlns="http://www.w3.org/2000/svg">
<path d="M42.7562 12.3768C40.0137 15.6194 35.6257 18.177 31.2377 17.8116C30.6892 13.4272 32.8375 8.76879 35.3515 5.89153C38.094 2.55756 42.8933 0.182683 46.7786 0C47.2356 4.56708 45.453 9.04282 42.7562 12.3768ZM46.7328 18.6794C40.3794 18.314 34.9401 22.2873 31.9233 22.2873C28.8609 22.2873 24.2443 18.862 19.2164 18.9534C12.6801 19.0447 6.6009 22.7441 3.26419 28.6356C-3.59206 40.4186 1.48157 57.8649 8.10928 67.4558C11.3546 72.2055 15.2398 77.412 20.3591 77.2293C25.2042 77.0466 27.124 74.078 32.9746 74.078C38.871 74.078 40.5622 77.2293 45.6816 77.138C50.9837 77.0466 54.3204 72.3882 57.5657 67.6384C61.2681 62.2493 62.7765 56.9971 62.8679 56.7231C62.7765 56.6318 52.6292 52.7498 52.5378 41.058C52.4464 31.2845 60.5368 26.6261 60.9024 26.352C56.3316 19.5928 49.2011 18.862 46.7328 18.6794ZM83.4367 5.43482V76.6356H94.4981V52.2931H109.81C123.797 52.2931 133.624 42.7022 133.624 28.8183C133.624 14.9343 123.98 5.43482 110.176 5.43482H83.4367V5.43482ZM94.4981 14.7517H107.251C116.849 14.7517 122.334 19.8668 122.334 28.8639C122.334 37.8611 116.849 43.0219 107.205 43.0219H94.4981V14.7517V14.7517ZM153.828 77.1836C160.775 77.1836 167.22 73.667 170.145 68.0951H170.374V76.6356H180.613V41.1951C180.613 30.9191 172.385 24.2969 159.724 24.2969C147.977 24.2969 139.292 31.0105 138.972 40.236H148.937C149.759 35.8516 153.828 32.9743 159.404 32.9743C166.169 32.9743 169.963 36.1256 169.963 41.9258V45.8535L156.159 46.6755C143.315 47.4519 136.367 52.7041 136.367 61.8382C136.367 71.0637 143.543 77.1836 153.828 77.1836ZM156.799 68.7345C150.902 68.7345 147.154 65.903 147.154 61.5642C147.154 57.0885 150.765 54.4853 157.667 54.0742L169.963 53.2978V57.3168C169.963 63.9848 164.295 68.7345 156.799 68.7345ZM194.279 96C205.067 96 210.14 91.8896 214.574 79.4215L234 24.9819H222.756L209.729 67.0447H209.5L196.473 24.9819H184.909L203.65 76.8183L202.644 79.9696C200.953 85.313 198.21 87.3682 193.32 87.3682C192.451 87.3682 190.76 87.2769 190.074 87.1855V95.726C190.714 95.9087 193.457 96 194.279 96Z" fill="white"/>
</svg>
