<svg width="260" height="59" viewBox="0 0 260 59" fill="none" xmlns="http://www.w3.org/2000/svg">
<path fill-rule="evenodd" clip-rule="evenodd" d="M260 25.7904C260 10.6493 249.477 0 234.725 0C215.945 0 203.358 13.6775 203.358 33.2096C203.358 48.4517 213.981 59 228.985 59C242.63 59 252.8 52.3884 256.979 41.84H241.824C239.81 45.1206 235.531 47.1899 230.294 47.1899C222.239 47.1899 217.204 41.84 216.751 34.2695H259.144C259.698 31.3926 260 28.9196 260 25.7904ZM217.909 24.0239C219.268 17.059 226.015 11.5073 234.171 11.5073C241.22 11.5073 246.557 16.6553 246.557 24.0239H217.909Z" fill="white"/>
<path d="M162.625 57.6374L165.343 43.1019C173.651 44.7675 174.91 40.0737 177.075 28.7683L178.132 23.1661C181.153 7.36884 187.245 -0.50456 204.666 1.6152L201.947 16.1507C193.639 14.4852 192.179 20.794 190.316 30.5853L189.259 36.1875C186.238 52.1866 179.945 59.7572 162.625 57.6374Z" fill="white"/>
<path d="M152.555 1.36274L142.284 57.6878H155.878L166.099 1.36274H152.555Z" fill="white"/>
<path d="M64.6965 1.36274H77.8375L82.1171 42.0924L99.3364 1.36274H112.377L116.958 42.4962L133.573 1.36274H146.664L122.849 57.6878H107.946L103.113 18.9265L86.6485 57.6878H72.2488L64.6965 1.36274Z" fill="white"/>
<path d="M0 31.2413L15.6081 16.3021L6.84742 1.3628H52.8661L29.0512 57.6879H21.1464L42.1922 7.87349H19.3842L24.268 16.3021L15.8598 24.7306H29.3029L26.5337 31.2413H0Z" fill="white"/>
</svg>
