<svg width="231" height="96" viewBox="0 0 231 96" fill="none" xmlns="http://www.w3.org/2000/svg">
<path d="M125.061 13.0093L108.955 16.4699V3.39652L125.061 0V13.0093Z" fill="white"/>
<path fill-rule="evenodd" clip-rule="evenodd" d="M158.554 20.2512C152.266 20.2512 148.223 23.1991 145.977 25.2498L145.143 21.2765H131.026V96L147.068 92.6035L147.132 74.4673C149.442 76.1335 152.843 78.5047 158.49 78.5047C169.976 78.5047 180.435 69.2764 180.435 48.9614C180.371 30.3766 169.783 20.2512 158.554 20.2512ZM154.704 64.4059C150.918 64.4059 148.672 63.0602 147.132 61.3939L147.068 37.6183C148.736 35.7598 151.046 34.4781 154.704 34.4781C160.543 34.4781 164.586 41.0148 164.586 49.41C164.586 57.9974 160.607 64.4059 154.704 64.4059Z" fill="white"/>
<path fill-rule="evenodd" clip-rule="evenodd" d="M231 49.6022C231 33.1964 223.043 20.2512 207.836 20.2512C192.564 20.2512 183.324 33.1964 183.324 49.4741C183.324 68.7637 194.232 78.5047 209.889 78.5047C217.525 78.5047 223.3 76.7744 227.663 74.3392V61.5221C223.3 63.701 218.295 65.0468 211.942 65.0468C205.718 65.0468 200.2 62.8679 199.494 55.3058H230.872C230.872 54.9526 230.895 54.1502 230.921 53.2257C230.957 51.9696 231 50.4882 231 49.6022ZM199.302 43.5141C199.302 36.2725 203.729 33.2605 207.772 33.2605C211.686 33.2605 215.857 36.2725 215.857 43.5141H199.302Z" fill="white"/>
<path d="M125.061 21.3408H108.955V77.4155H125.061V21.3408Z" fill="white"/>
<path d="M90.6678 21.3407L91.6944 26.083C95.4803 19.1618 102.988 20.5717 105.041 21.3407V36.0803C103.052 35.3754 96.6353 34.4782 92.8494 39.4128V77.4154H76.8077V21.3407H90.6678Z" fill="white"/>
<path d="M59.611 7.43429L43.9543 10.7667L43.8901 62.099C43.8901 71.5837 51.0126 78.569 60.5093 78.569C65.771 78.569 69.621 77.6077 71.7385 76.4542V63.4448C69.6852 64.278 59.5468 67.2259 59.5468 57.7412V34.991H71.7385V21.3408H59.5468L59.611 7.43429Z" fill="white"/>
<path d="M21.6884 34.1577C18.2876 34.1577 16.2342 35.119 16.2342 37.6183C16.2342 40.3471 19.768 41.5476 24.1521 43.0368C31.2993 45.4646 40.7062 48.66 40.746 60.4967C40.746 71.968 31.5701 78.5688 18.2234 78.5688C12.705 78.5688 6.67335 77.4793 0.705834 74.9159V59.6636C6.09585 62.6116 12.8975 64.7905 18.2234 64.7905C21.8167 64.7905 24.3834 63.8292 24.3834 60.8813C24.3834 57.8585 20.5527 56.4769 15.9279 54.8089C8.88474 52.2686 0 49.0642 0 38.3873C0 27.0442 8.66253 20.2512 21.6884 20.2512C27.0142 20.2512 32.2759 21.0843 37.6018 23.1991V38.2591C32.7251 35.6316 26.5651 34.1577 21.6884 34.1577Z" fill="white"/>
</svg>
