<svg width="120" height="120" viewBox="0 0 120 120" fill="none" xmlns="http://www.w3.org/2000/svg">
<path fill-rule="evenodd" clip-rule="evenodd" d="M60.9957 0.148359L108.451 14.2695C109.95 14.7155 110.977 16.0842 110.977 17.6367V69.4139C110.977 76.1487 108.228 83.0426 102.807 89.9041C98.667 95.1448 92.9392 100.407 85.783 105.545C73.7611 114.177 61.9232 119.472 61.4253 119.693C60.9648 119.898 60.4709 120 59.977 120C59.4832 120 58.9893 119.898 58.5288 119.693C58.0307 119.472 46.1925 114.177 34.1706 105.545C27.0144 100.407 21.2863 95.1448 17.1462 89.9041C11.7254 83.0423 8.97656 76.1484 8.97656 69.4139V17.6367C8.97656 16.0842 10.0033 14.7155 11.5023 14.2695L58.9584 0.148359C59.6231 -0.0494531 60.3312 -0.0494531 60.9957 0.148359ZM82.7039 49.7464C84.3675 48.0249 84.4001 45.1772 82.8018 43.3843C81.2034 41.5913 78.5612 41.532 76.8977 43.2535L53.7705 67.2004L43.0713 55.6933C41.4403 53.9355 38.8308 53.9355 37.1998 55.6933C35.5688 57.4511 35.5688 60.2988 37.1998 62.0566L50.7695 76.6815C52.3678 78.4141 54.9448 78.4426 56.6084 76.7464L82.7039 49.7464Z" fill="#4F01D9"/>
</svg>
