<svg width="122" height="120" viewBox="0 0 122 120" fill="none" xmlns="http://www.w3.org/2000/svg">
<path d="M9.74776 0H47.2478C52.0736 0 55.9984 3.92487 55.9984 8.74971V31.2497C55.9984 36.0755 52.0736 40.0004 47.2478 40.0004H9.74776C4.92292 40.0004 0.998047 36.0755 0.998047 31.2497V8.74971C0.998047 3.92487 4.92292 0 9.74776 0Z" fill="white"/>
<path d="M9.74776 49.9996H47.2478C52.0736 49.9996 55.9984 53.9245 55.9984 58.7502V111.25C55.9984 116.075 52.0736 120 47.2478 120H9.74776C4.92292 120 0.998047 116.075 0.998047 111.25V58.7502C0.998047 53.9245 4.92292 49.9996 9.74776 49.9996Z" fill="white"/>
<path d="M112.253 79.9996H74.7527C69.9269 79.9996 66.0021 83.9245 66.0021 88.7503V111.25C66.0021 116.075 69.9269 120 74.7527 120H112.253C117.078 120 121.002 116.075 121.002 111.25V88.7503C121.002 83.9245 117.078 79.9996 112.253 79.9996Z" fill="white"/>
<path d="M74.7527 0H112.253C117.078 0 121.002 3.92487 121.002 8.74971V61.2498C121.002 66.0755 117.078 70.0004 112.253 70.0004H74.7527C69.9269 70.0004 66.0021 66.0755 66.0021 61.2498V8.74971C66.0021 3.92487 69.9269 0 74.7527 0Z" fill="white"/>
<path d="M9.74776 0H47.2478C52.0736 0 55.9984 3.92487 55.9984 8.74971V31.2497C55.9984 36.0755 52.0736 40.0004 47.2478 40.0004H9.74776C4.92292 40.0004 0.998047 36.0755 0.998047 31.2497V8.74971C0.998047 3.92487 4.92292 0 9.74776 0Z" fill="#3CDBE5"/>
<path d="M112.253 79.9996H74.7527C69.9269 79.9996 66.0021 83.9245 66.0021 88.7503V111.25C66.0021 116.075 69.9269 120 74.7527 120H112.253C117.078 120 121.002 116.075 121.002 111.25V88.7503C121.002 83.9245 117.078 79.9996 112.253 79.9996Z" fill="#3CDBE5"/>
</svg>
